<?xml version="1.0" encoding="utf-8"?>
<svg id="Layer_1" data-name="Layer 1" xmlns="http://www.w3.org/2000/svg" viewBox="0 0 4096 4096">
  <g transform="matrix(1, 0, 0, 1, 8, 0)">
    <path d="M 427.582 704.67 C 351.95 691.302 353.85 564.03 442.075 550.31 L 1352.75 549.888 C 1340.02 349.447 1484.74 210.425 1679.55 197.761 C 1884.99 184.394 2207.43 182.776 2411.88 197.761 C 2597.68 211.41 2749.79 357.115 2731.71 549.818 L 3635.21 550.381 C 3698.25 551.366 3734.41 633.681 3695.93 680.186 C 3690.51 686.729 3655.47 704.529 3649.91 704.529 L 3491.62 704.529 L 3491.62 985.949 C 3504.63 983.979 3516.45 978.984 3529.96 978.562 C 3626.07 975.537 3836 967.094 3918.46 998.824 C 4093.72 1066.22 4103.28 1331.32 3944.14 1420.95 L 3491.12 1602.4 L 3491.83 3515.5 C 3469.88 3794.59 3141.18 3815.42 2924.06 3848.28 C 2339.9 3936.5 1659.43 3932.42 1077.1 3833.15 C 869.482 3797.76 618.807 3775.04 592.705 3515.5 L 593.409 1602.4 C 459.031 1543.44 306.853 1498.77 175.359 1435.24 C 61.524 1380.29 15.582 1303.04 30.85 1173.16 C 42.74 1072.49 141.729 978.914 244.659 978.914 L 582.363 978.914 C 584.474 978.914 587.78 987.849 592.916 985.949 L 592.916 704.529 C 543.175 698.408 474.72 712.901 427.582 704.529 L 427.582 704.67 Z M 2576.93 549.888 C 2591.56 448.647 2521.7 369.428 2423.84 354.723 C 2185.9 363.94 1929.59 336.22 1693.62 352.613 C 1582.04 360.352 1506.06 418.535 1503.38 535.606 L 1510.98 549.959 L 2576.86 549.959 L 2576.93 549.888 Z M 3329.73 704.67 L 754.733 704.67 L 754.733 3522.39 C 754.733 3549.62 794.906 3604.99 820.163 3618.78 C 862.376 3641.92 982.402 3661.41 1034.89 3671.4 C 1577.25 3774.89 2221.64 3780.66 2769.56 3714.95 C 2876.43 3702.15 3180.79 3664.44 3264.37 3618.78 C 3285.26 3607.38 3329.8 3550.95 3329.8 3529.43 L 3329.8 704.67 L 3329.73 704.67 Z M 592.916 1133.84 L 237.623 1133.84 C 235.583 1133.84 206.104 1151.21 202.305 1154.8 C 174.444 1180.9 178.666 1252.38 206.315 1277.71 C 227.211 1296.85 378.966 1353.84 417.24 1369.31 C 475.283 1392.81 533.326 1417.15 592.916 1436.36 L 592.916 1133.84 Z M 3491.55 1436.36 L 3875.12 1281.72 C 3920.15 1250.48 3906.43 1133.84 3846.84 1133.84 L 3491.55 1133.84 L 3491.55 1436.36 Z" style="stroke-width: 7.036;"/>
    <path d="M 3329.73 704.67 L 3329.73 3529.43 C 3329.73 3551.03 3285.19 3607.38 3264.3 3618.78 C 3180.79 3664.44 2876.43 3702.15 2769.49 3714.95 C 2221.57 3780.66 1577.18 3774.89 1034.82 3671.4 C 982.332 3661.41 862.306 3641.92 820.093 3618.78 C 794.906 3604.92 754.663 3549.62 754.663 3522.39 L 754.663 704.67 L 3329.66 704.67 L 3329.73 704.67 Z M 928.651 811.68 C 883.342 821.881 888.197 875.492 881.091 911.936 L 881.091 3431.21 C 872.296 3543.92 1008.5 3573.05 1015.33 3452.32 L 1008.5 848.405 C 994.292 815.69 962.914 803.941 928.58 811.68 L 928.651 811.68 Z M 1510.98 1981.47 C 1470.45 1982.88 1411.43 2062.59 1433.87 2104.66 L 1788.88 2460.03 C 1700.16 2544.67 1603.08 2621.63 1514.5 2706.2 C 1457.23 2760.87 1388 2800.9 1466.16 2874.35 C 1523.5 2928.24 1549.25 2896.79 1599.13 2854.16 C 1699.32 2768.47 1816.53 2655.19 1912.29 2562.26 C 1964.35 2511.74 2018.94 2479.38 1961.39 2407.19 C 1873.31 2296.8 1723.17 2171.29 1619.89 2066.25 C 1589.36 2035.15 1563.18 1979.71 1510.91 1981.47 L 1510.98 1981.47 Z M 2715.81 2813.56 C 2735.65 2792.46 2733.96 2672.29 2678.52 2675.03 L 2122.65 2681.16 C 2096.83 2699.45 2089.44 2830.24 2144.74 2828.97 C 2312.25 2818.28 2500.24 2844.73 2665.3 2829.82 C 2679.23 2828.55 2706.74 2823.34 2715.88 2813.56 L 2715.81 2813.56 Z" style="stroke-width: 7.036; fill: rgb(255, 255, 255);"/>
    <path d="M 928.651 811.68 C 962.914 803.941 994.292 815.69 1008.57 848.405 L 1015.4 3452.32 C 1008.57 3573.05 872.367 3543.85 881.161 3431.21 L 881.161 911.936 C 888.197 875.492 883.342 821.881 928.651 811.68 L 928.651 811.68 Z" style="stroke-width: 7.036; fill: rgb(152, 152, 152);"/>
    <path d="M 1510.98 1981.47 C 1563.25 1979.71 1589.43 2035.15 1619.96 2066.25 C 1723.17 2171.36 1873.38 2296.88 1961.46 2407.19 C 2019.01 2479.31 1964.42 2511.74 1912.36 2562.26 C 1816.6 2655.19 1699.39 2768.47 1599.2 2854.16 C 1549.32 2896.79 1523.57 2928.24 1466.23 2874.35 C 1388.07 2800.9 1457.37 2760.87 1514.57 2706.2 C 1603.14 2621.63 1700.23 2544.67 1788.95 2460.03 L 1433.94 2104.66 C 1411.57 2062.59 1470.53 1982.88 1511.05 1981.47 L 1510.98 1981.47 Z" style="stroke-width: 7.036;"/>
    <path d="M 2715.81 2813.56 C 2706.66 2823.34 2679.16 2828.55 2665.22 2829.82 C 2500.17 2844.73 2308.989 2824.621 2141.479 2835.311 C 2086.179 2836.581 2096.76 2699.45 2122.58 2681.16 L 2678.45 2675.03 C 2733.89 2672.29 2735.58 2792.39 2715.74 2813.56 L 2715.81 2813.56 Z" style="stroke-width: 7.036;"/>
  </g>
</svg>